<?xml version="1.0" standalone="no"?>
<!DOCTYPE svg PUBLIC "-//W3C//DTD SVG 20010904//EN"
 "http://www.w3.org/TR/2001/REC-SVG-20010904/DTD/svg10.dtd">
<svg version="1.0" xmlns="http://www.w3.org/2000/svg"
 width="1280.000000pt" height="720.000000pt" viewBox="0 0 1280.000000 720.000000"
 preserveAspectRatio="xMidYMid meet">

<g transform="translate(0.000000,720.000000) scale(0.100000,-0.100000)"
fill="#000000" stroke="none">
<path d="M4953 6838 c-6 -7 -18 -47 -28 -88 -9 -41 -33 -107 -51 -146 -81
-171 -308 -441 -517 -613 -42 -35 -77 -68 -77 -73 0 -42 161 -201 221 -219 36
-11 41 -9 145 54 126 75 221 123 229 115 3 -3 -30 -67 -72 -143 l-78 -139
-175 -48 c-96 -27 -213 -53 -260 -59 -47 -6 -143 -20 -215 -31 -268 -43 -255
-40 -255 -65 0 -31 145 -209 206 -253 66 -47 101 -46 185 7 72 45 282 153 299
153 12 0 -62 -108 -189 -280 -55 -74 -87 -109 -89 -98 -6 33 17 160 37 201 11
22 19 42 17 44 -5 5 -79 -73 -111 -116 -58 -79 -82 -209 -51 -270 31 -60 148
-138 190 -127 22 6 118 124 266 323 73 100 100 125 100 92 0 -17 51 -78 70
-84 11 -3 78 10 150 30 139 38 171 41 124 10 -113 -73 -352 -294 -340 -314 4
-6 -11 -15 -36 -21 -199 -52 -455 -137 -485 -162 -55 -45 95 -169 220 -182 28
-3 102 -10 162 -16 135 -14 246 -35 285 -55 36 -18 55 -19 72 -2 7 7 83 60
168 116 228 152 540 389 540 410 0 41 -114 176 -178 210 -18 10 -24 8 -38 -14
-10 -15 -43 -40 -76 -56 -66 -33 -158 -71 -158 -64 0 2 21 18 48 36 68 46 152
130 152 153 0 10 -18 43 -40 72 -41 54 -79 75 -103 57 -10 -8 -103 -43 -114
-43 -2 0 34 37 80 83 46 45 89 97 96 114 12 30 11 37 -18 88 l-32 56 33 -3
c32 -3 36 -9 118 -168 131 -256 248 -419 411 -576 105 -100 257 -204 299 -204
26 0 5 94 -79 346 -42 126 -112 420 -136 572 -7 41 -6 42 20 42 42 0 218 -38
303 -65 42 -14 81 -25 85 -25 20 0 -9 70 -52 125 -119 155 -215 225 -320 234
l-66 6 0 70 c0 39 4 110 9 160 8 83 8 89 -8 76 -9 -8 -24 -40 -33 -73 -19 -67
-29 -74 -31 -21 -2 45 -24 122 -64 222 -53 133 -192 295 -247 289 -25 -3 -26
-5 -23 -69 l4 -65 -42 -38 c-61 -55 -143 -105 -250 -152 -109 -48 -329 -126
-342 -122 -5 2 23 27 62 56 39 29 123 96 188 150 64 54 136 110 159 125 23 15
50 41 59 59 15 29 15 35 -2 91 -48 159 -281 379 -331 315z m525 -751 c3 -33 1
-37 -20 -36 -31 1 -91 23 -95 35 -3 9 84 44 102 40 6 -2 11 -19 13 -39z m-110
-106 c119 -60 337 -211 322 -224 -3 -2 -51 -9 -106 -16 -107 -12 -315 -49
-428 -75 -102 -24 -103 -23 -42 55 32 40 56 81 56 94 0 13 -22 51 -50 86 -28
34 -49 64 -47 65 5 5 162 73 170 73 4 1 60 -26 125 -58z m397 -676 c-1 -199
-7 -275 -25 -275 -5 0 -22 19 -37 43 -90 142 -197 300 -237 349 -25 31 -46 61
-46 67 0 12 76 18 230 17 l115 -1 0 -200z m-768 86 c-19 -21 -56 -58 -83 -82
-27 -24 -94 -84 -148 -134 l-99 -90 112 155 c118 165 147 190 215 190 l38 0
-35 -39z m187 -651 c-106 -100 -288 -240 -374 -288 -49 -28 -59 -30 -95 -22
-22 6 -122 15 -222 22 -101 6 -183 14 -183 18 0 3 69 38 153 78 234 109 245
114 269 101 16 -9 48 1 171 50 165 66 345 130 364 131 7 0 -31 -41 -83 -90z"/>
<path d="M8240 6840 c0 -6 -12 -10 -27 -10 -43 0 -116 -39 -266 -141 -77 -52
-162 -108 -189 -126 -150 -94 -224 -225 -243 -431 -7 -72 -8 -73 -50 -102 -52
-36 -59 -37 -50 -9 4 11 15 61 25 111 22 103 20 111 -46 199 -70 91 -197 204
-275 243 -39 20 -75 33 -80 30 -20 -12 -31 -98 -31 -227 2 -322 68 -551 216
-747 l55 -74 -62 -55 c-124 -112 -688 -667 -712 -702 -14 -19 -25 -42 -25 -51
0 -23 86 -98 113 -98 28 0 202 96 329 181 105 71 316 229 396 296 29 25 55 43
58 40 3 -3 1 -22 -4 -44 -50 -194 -51 -349 -3 -413 l19 -26 -161 -84 -160 -83
41 -38 40 -38 154 6 c223 8 284 -9 702 -197 87 -39 162 -68 166 -63 4 4 11
202 16 438 8 440 7 615 -3 650 -8 30 6 12 92 -120 149 -229 474 -514 617 -540
50 -9 55 6 25 76 -91 205 -181 580 -253 1049 -46 309 -80 499 -89 508 -3 3 -7
3 -10 0 -7 -7 -7 -673 0 -707 6 -30 -12 -412 -21 -434 -4 -12 -21 3 -67 61
-94 120 -246 289 -343 381 -57 55 -83 86 -73 90 52 17 138 142 359 520 58 99
135 209 210 302 20 24 21 28 7 60 -20 47 -166 200 -244 255 -62 45 -153 83
-153 64z m-41 -332 c-10 -51 -21 -121 -25 -155 -3 -35 -8 -63 -9 -63 -2 0 -23
11 -46 25 -24 14 -51 25 -59 25 -8 0 -27 20 -41 44 -29 47 -79 88 -96 78 -6
-4 -20 -41 -31 -82 -38 -139 -37 -138 -236 -245 l-89 -49 6 56 c7 68 35 135
83 198 32 42 55 57 213 133 181 89 277 126 322 127 l26 0 -18 -92z m-68 -380
c-15 -77 -52 -218 -57 -218 -2 0 -13 6 -24 12 -17 11 -32 6 -106 -30 -48 -24
-84 -37 -81 -30 35 91 74 177 86 192 21 25 184 146 190 141 2 -2 -2 -33 -8
-67z m-627 -328 c-10 -106 -24 -165 -44 -190 -11 -14 -27 -40 -35 -57 -9 -18
-19 -33 -24 -33 -32 0 -28 310 5 408 3 9 20 0 53 -30 l50 -43 -5 -55z m156 83
c-1 -19 -19 -35 -30 -28 -10 6 -9 11 5 22 22 15 25 16 25 6z m-40 -43 c12 -7
8 -19 -25 -66 -22 -32 -44 -59 -50 -61 -6 -2 -9 23 -7 67 l4 70 31 0 c18 0 39
-4 47 -10z m399 -108 l-21 -62 -30 16 -30 16 48 49 c26 27 49 47 51 46 1 -2
-6 -31 -18 -65z m-46 -123 c24 -31 32 -49 23 -49 -7 0 -65 -51 -127 -112 -115
-114 -215 -248 -240 -320 -7 -21 -16 -38 -20 -38 -12 0 -17 174 -5 183 11 7
-18 39 -47 51 -7 2 66 80 173 185 153 149 187 177 195 164 6 -9 27 -38 48 -64z
m-628 -123 c30 -24 60 -46 66 -48 28 -9 -319 -307 -516 -443 -183 -126 -193
-128 -95 -15 168 194 483 550 487 550 2 0 29 -20 58 -44z m620 -108 c-18 -56
-36 -707 -25 -888 4 -63 6 -117 4 -119 -2 -2 -59 17 -126 42 -185 69 -305 107
-385 120 -40 6 -73 14 -73 17 0 3 24 18 53 34 l53 28 39 -21 c22 -12 45 -21
51 -21 21 0 44 37 50 82 4 25 9 50 13 56 3 5 71 46 151 91 80 45 140 81 134
81 -6 0 -70 -23 -144 -50 -73 -28 -135 -48 -138 -46 -7 7 27 151 59 249 51
157 125 263 227 328 50 32 64 36 57 17z"/>
<path d="M7060 2967 c-8 -7 -31 -32 -50 -57 -19 -24 -81 -96 -137 -158 -119
-131 -223 -259 -223 -273 0 -5 -4 -9 -10 -9 -5 0 -10 7 -10 15 0 24 -37 90
-72 130 -39 45 -115 98 -128 90 -17 -10 -28 -77 -35 -202 -4 -76 -2 -137 5
-162 16 -62 70 -132 137 -181 34 -25 62 -49 62 -53 1 -11 -106 -124 -142 -149
l-27 -19 -78 71 c-99 92 -186 150 -223 150 -27 0 -29 -3 -29 -37 0 -54 17
-139 65 -318 42 -156 43 -160 25 -185 -9 -14 -63 -115 -119 -226 -56 -111
-136 -257 -179 -325 -75 -121 -77 -123 -80 -88 -4 50 54 308 89 396 43 108 94
208 155 300 30 44 54 86 54 92 0 19 -124 138 -167 160 -68 34 -124 29 -229
-22 -49 -24 -132 -73 -184 -108 -52 -36 -115 -71 -139 -79 -71 -23 -241 -136
-241 -159 0 -16 73 -91 117 -120 78 -52 178 -40 361 44 39 19 72 32 72 29 0
-3 -11 -30 -24 -62 -55 -133 -89 -265 -105 -404 -8 -74 -7 -97 8 -150 21 -78
77 -164 139 -217 61 -51 153 -104 162 -94 4 4 17 46 29 93 13 47 29 100 37
118 13 31 14 32 36 18 13 -8 66 -26 118 -40 124 -33 433 -96 469 -96 33 0 40
13 71 136 40 163 139 417 201 519 22 36 55 67 115 109 46 32 84 64 84 69 0 6
-9 21 -21 33 -12 12 -18 28 -14 34 14 23 169 130 176 123 17 -17 114 -256 159
-393 55 -165 82 -295 79 -378 -3 -76 -20 -108 -61 -116 -58 -12 -352 -55 -355
-52 -2 1 4 47 12 102 15 97 30 205 41 294 12 88 -27 166 -101 205 -41 23 -47
18 -66 -49 -7 -27 -7 -42 0 -49 6 -6 11 -20 11 -31 0 -23 -39 -171 -76 -288
-36 -115 -33 -155 16 -217 81 -103 220 -191 335 -212 57 -11 552 -5 564 6 38
39 -247 711 -470 1106 -27 48 -49 91 -49 97 0 17 190 134 258 158 35 12 69 27
74 32 29 29 -32 119 -169 244 -69 64 -118 97 -181 121 -39 16 -46 16 -76 2
-41 -20 -261 -199 -387 -315 -127 -117 -161 -168 -157 -234 2 -28 8 -51 16
-54 6 -2 12 3 12 10 0 19 33 48 95 83 58 33 388 175 394 170 13 -13 -180 -206
-346 -347 -106 -91 -253 -198 -270 -198 -17 0 -17 131 1 273 13 99 11 134 -8
193 -5 16 6 29 61 69 38 27 115 86 173 131 243 189 637 449 703 464 66 14 97
31 97 51 0 45 -141 215 -244 293 -107 81 -180 114 -206 93z m-54 -318 c-22
-49 -306 -440 -325 -447 -4 -1 -12 34 -17 79 l-10 81 40 66 c58 98 165 200
255 245 41 21 76 36 78 34 2 -2 -8 -28 -21 -58z m-758 -1107 c38 -93 120 -235
169 -291 67 -76 123 -100 123 -52 0 19 26 48 35 39 3 -2 -9 -36 -26 -75 l-32
-71 -126 -32 c-69 -18 -186 -53 -259 -77 -74 -24 -136 -42 -139 -40 -2 3 34
112 80 243 47 132 97 278 113 327 15 48 31 87 34 87 3 0 15 -26 28 -58z m287
-292 c3 -6 -1 -13 -10 -16 -19 -8 -20 -6 -30 24 -6 21 -5 23 13 13 12 -6 24
-16 27 -21z m-45 -212 c0 -10 -45 -118 -65 -159 -20 -39 -31 -49 -57 -54 -29
-5 -247 20 -257 30 -3 4 357 182 372 184 4 1 7 0 7 -1z"/>
<path d="M5340 2558 c-63 -68 -25 -144 123 -246 131 -90 238 -129 325 -117 19
2 42 -1 53 -8 14 -8 22 -9 27 -1 4 5 34 20 68 33 83 31 120 55 139 91 15 29
15 32 -4 59 -11 15 -49 55 -85 88 -116 109 -202 119 -408 48 -72 -25 -142 -45
-154 -45 -23 0 -24 4 -24 60 0 53 -2 60 -20 60 -10 0 -29 -10 -40 -22z"/>
</g>
</svg>
